<?xml version="1.0" encoding="UTF-8" standalone="no"?>
<svg xmlns="http://www.w3.org/2000/svg" height="256" width="256" version="1.1" viewBox="0 0 256 256">
 <rect fill="#fff" ry="0" height="256" width="256" y="0" x="0"/>
 <path d="m55.81 116.7h3.105v12.07q0 2.168 1.328 3.613t3.203 1.445q1.914 0 3.301-1.445 1.406-1.465 1.406-3.613v-12.07h3.086v12.07q0 3.301-2.246 5.664-2.227 2.363-5.469 2.363t-5.488-2.363q-2.227-2.363-2.227-5.664z"/>
 <path d="m77.45 136.5h-3.008l6.016-29.41 10.68 21.99 10.88-21.99 5.859 29.41h-3.145l-3.945-19.06-9.746 19.36-9.492-19.36z"/>
 <path d="m127.8 136.5h-3.398q-0.5664-1.289-0.5664-2.715-3.047 3.047-6.68 3.047-1.719 0-3.066-0.5273-1.348-0.5274-2.148-1.387-0.7812-0.8594-1.191-1.836-0.3906-0.9961-0.3906-2.012 0-1.055 0.332-1.914 0.332-0.8789 0.8398-1.504 0.5078-0.6445 1.348-1.133 0.8398-0.5078 1.602-0.8203 0.7812-0.3125 1.895-0.5469 1.133-0.2344 1.934-0.332 0.8203-0.1172 2.012-0.1758 1.191-0.0586 1.816-0.0586 0.625-0.0195 1.641-0.0195-0.2734-2.441-1.797-3.867-1.504-1.426-3.398-1.426-0.4688 0-0.8984 0.0781-0.4297 0.0781-0.8008 0.2344-0.3711 0.1562-0.6836 0.3125-0.3125 0.1562-0.625 0.4102-0.293 0.2539-0.5078 0.4297-0.1953 0.1562-0.4297 0.4492-0.2344 0.2734-0.332 0.4102-0.0977 0.1172-0.2734 0.3516-0.1758 0.2344-0.1758 0.2539l-2.539-1.562q0.3516-0.5273 0.5859-0.8398 0.2539-0.3125 0.9766-1.055 0.7422-0.7422 1.445-1.191 0.7226-0.4492 1.875-0.8203 1.152-0.3906 2.383-0.3906 1.582 0 3.066 0.6055 1.504 0.6055 2.676 1.699t1.875 2.812q0.7226 1.719 0.7226 3.77v6.543q0 1.328 0.2539 2.676 0.2539 1.328 0.625 2.051zm-10.64-2.617q1.914 0 3.789-1.23t2.891-2.91v-2.637q-1.641 0.0195-2.949 0.1172-1.289 0.0977-2.754 0.3516t-2.441 0.6641q-0.9766 0.4102-1.621 1.133-0.6445 0.7227-0.6445 1.699 0 1.016 0.9375 1.914 0.9375 0.8984 2.793 0.8984z"/>
 <path d="m135.6 136.5h-3.105v-16.86h-1.699v-2.91h1.699v-4.375h3.105v4.375h5.645l-1.035 2.91h-4.609z"/>
 <path d="m147 119.6q2.09-2.344 4.785-3.301l3.887 2.715q-1.68 0-3.047 0.3516-1.367 0.332-2.246 0.8594-0.8789 0.5078-1.543 1.23-0.6641 0.7226-0.9961 1.387-0.332 0.6641-0.5469 1.426-0.1953 0.7422-0.2539 1.191-0.0391 0.4492-0.0391 0.8594v10.18h-3.047v-14q0-1.465-0.2734-3.32-0.2539-1.855-0.6055-2.539h3.418q0.5078 1.387 0.5078 2.949z"/>
 <path d="m159.8 110.2q0.918 0 1.562 0.625 0.6641 0.625 0.6641 1.523 0 0.8789-0.6641 1.484-0.6445 0.6055-1.562 0.6055-0.957 0-1.602-0.6055-0.6445-0.6055-0.6445-1.484 0-0.8984 0.6445-1.523 0.6641-0.625 1.602-0.625zm1.504 26.27h-3.086v-19.8h3.086z"/>
 <path d="m169.9 136.5h-3.105v-29.16h3.105v15.98l7.656-6.66h4.629l-9.004 7.832 10.8 12.01h-4.004l-9.062-10.1-1.016 0.8789z"/>
 <path d="m198.8 121-2.891 1.016-0.2148-0.6641q-0.3711-1.016-1.152-1.523-0.7617-0.5273-1.641-0.5273-1.035 0-1.699 0.6055-0.6641 0.6055-0.6641 1.562 0 0.625 0.5078 1.152 0.5078 0.5078 1.328 0.8984 0.8203 0.3711 1.797 0.7617 0.9961 0.3906 1.973 0.918 0.9961 0.5274 1.816 1.191 0.8203 0.6641 1.328 1.719 0.5078 1.055 0.5078 2.383 0 2.773-2.07 4.57t-4.902 1.797q-1.621 0-3.027-0.625-1.406-0.6445-2.461-2.07-1.055-1.445-1.348-3.477l-0.0977-0.6641 3.066-0.3711 0.0977 0.625q0.2539 1.836 1.309 2.734 1.055 0.8984 2.5 0.8984 1.543 0 2.715-0.9375 1.172-0.957 1.172-2.48 0-0.8594-0.5273-1.504-0.5078-0.6641-1.328-1.094-0.8203-0.4492-1.816-0.8398-0.9766-0.4102-1.973-0.8789-0.9961-0.4688-1.816-1.035-0.8203-0.5859-1.348-1.523-0.5078-0.9375-0.5078-2.148 0-2.324 1.602-3.711 1.621-1.387 3.867-1.387 1.035 0 2.051 0.332t2.051 1.289q1.055 0.957 1.582 2.402z"/>
 <path d="m39.59 61.1v134.1h13.91v7.031h-20.94v-148.1h20.94v7.031z"/>
 <path d="m216.4 60.7h-14v-7.031h21.02v148.1h-21v-7.031h13.98z"/>
</svg>
